<svg width="800" height="800" viewBox="0 0 800 800" fill="none" xmlns="http://www.w3.org/2000/svg">
  <rect width="800" height="800" fill="#F6D6D2"/>
  <circle cx="400" cy="350" r="120" fill="#E9B7B2"/>
  <path d="M400 470C480 470 550 420 550 350C550 280 480 230 400 230C320 230 250 280 250 350C250 420 320 470 400 470Z" fill="white" opacity="0.3"/>
  <path d="M350 310C350 300 360 290 370 290C380 290 390 300 390 310" stroke="#D4AF37" stroke-width="4" stroke-linecap="round"/>
  <path d="M410 310C410 300 420 290 430 290C440 290 450 300 450 310" stroke="#D4AF37" stroke-width="4" stroke-linecap="round"/>
  <path d="M370 380C380 395 420 395 430 380" stroke="#D4AF37" stroke-width="4" stroke-linecap="round" fill="none"/>
  <text x="400" y="560" text-anchor="middle" font-family="Playfair Display, serif" font-size="32" fill="#1A1A1A" font-weight="bold">Archi's Beauty Care</text>
  <text x="400" y="600" text-anchor="middle" font-family="Poppins, sans-serif" font-size="16" fill="#1A1A1A" opacity="0.5">Premium Beauty Clinic</text>
</svg>
